<?xml version="1.0" encoding="utf-8"?>
<svg xmlns="http://www.w3.org/2000/svg"
	xmlns:xlink="http://www.w3.org/1999/xlink"
	width="153px" height="153px" viewBox="0 0 153 153">
<path fillRule="evenodd" d="M 148.36 90.72C 148.36 90.72 141.99 90.72 141.99 90.72 141.92 90.72 141.87 90.79 141.86 90.86 140.16 98.6 137.14 105.9 132.87 112.56 132.83 112.62 132.81 112.7 132.87 112.76 132.87 112.76 137.37 117.26 137.37 117.26 139.18 119.07 139.18 122.01 137.37 123.82 137.37 123.82 123.82 137.37 123.82 137.37 122.01 139.18 119.07 139.18 117.26 137.37 117.26 137.37 112.76 132.87 112.76 132.87 112.7 132.81 112.62 132.83 112.56 132.87 105.9 137.14 98.6 140.16 90.86 141.85 90.79 141.87 90.72 141.92 90.72 141.99 90.72 141.99 90.72 148.36 90.72 148.36 90.72 150.92 88.64 153 86.08 153 86.08 153 66.92 153 66.92 153 64.36 153 62.28 150.92 62.28 148.36 62.28 148.36 62.28 141.99 62.28 141.99 62.28 141.92 62.21 141.87 62.14 141.86 54.4 140.16 47.1 137.14 40.44 132.87 40.38 132.83 40.3 132.81 40.24 132.87 40.24 132.87 35.74 137.37 35.74 137.37 33.93 139.18 30.99 139.18 29.18 137.37 29.18 137.37 15.63 123.82 15.63 123.82 13.82 122.01 13.82 119.07 15.63 117.26 15.63 117.26 20.13 112.76 20.13 112.76 20.19 112.7 20.17 112.62 20.13 112.56 15.86 105.9 12.84 98.6 11.15 90.86 11.13 90.79 11.08 90.72 11.01 90.72 11.01 90.72 4.64 90.72 4.64 90.72 2.08 90.72-0 88.64-0 86.08-0 86.08-0 66.92-0 66.92-0 64.36 2.08 62.28 4.64 62.28 4.64 62.28 11.01 62.28 11.01 62.28 11.08 62.28 11.13 62.21 11.15 62.14 12.84 54.4 15.86 47.1 20.13 40.44 20.17 40.38 20.19 40.3 20.13 40.24 20.13 40.24 15.63 35.74 15.63 35.74 13.82 33.93 13.82 30.99 15.63 29.18 15.63 29.18 29.18 15.63 29.18 15.63 30.99 13.82 33.93 13.82 35.74 15.63 35.74 15.63 40.24 20.13 40.24 20.13 40.3 20.19 40.38 20.17 40.44 20.13 47.1 15.86 54.4 12.84 62.14 11.15 62.21 11.13 62.28 11.08 62.28 11.01 62.28 11.01 62.28 4.64 62.28 4.64 62.28 2.08 64.36-0 66.92-0 66.92-0 86.08-0 86.08-0 88.64-0 90.72 2.08 90.72 4.64 90.72 4.64 90.72 11.01 90.72 11.01 90.72 11.08 90.79 11.13 90.86 11.15 98.6 12.84 105.9 15.86 112.56 20.13 112.62 20.17 112.7 20.19 112.76 20.13 112.76 20.13 117.26 15.63 117.26 15.63 119.07 13.82 122.01 13.82 123.82 15.63 123.82 15.63 137.37 29.18 137.37 29.18 139.18 30.99 139.18 33.93 137.37 35.74 137.37 35.74 132.87 40.24 132.87 40.24 132.81 40.3 132.83 40.38 132.87 40.44 137.14 47.1 140.16 54.4 141.85 62.14 141.87 62.21 141.92 62.28 141.99 62.28 141.99 62.28 148.36 62.28 148.36 62.28 150.92 62.28 153 64.36 153 66.92 153 66.92 153 86.08 153 86.08 153 88.64 150.92 90.72 148.36 90.72ZM 148.52 86.08C 148.52 86.08 148.52 66.92 148.52 66.92 148.52 66.83 148.45 66.76 148.36 66.76 148.36 66.76 141.99 66.76 141.99 66.76 139.8 66.76 137.95 65.26 137.48 63.1 135.9 55.88 133.08 49.07 129.1 42.86 127.9 41 128.15 38.62 129.7 37.07 129.7 37.07 134.2 32.57 134.2 32.57 134.26 32.51 134.26 32.41 134.2 32.35 134.2 32.35 120.65 18.8 120.65 18.8 120.59 18.74 120.49 18.74 120.43 18.8 120.43 18.8 115.93 23.3 115.93 23.3 114.38 24.85 112 25.1 110.14 23.9 103.93 19.92 97.12 17.1 89.9 15.52 87.74 15.05 86.24 13.19 86.24 11.01 86.24 11.01 86.24 4.64 86.24 4.64 86.24 4.55 86.17 4.48 86.08 4.48 86.08 4.48 66.92 4.48 66.92 4.48 66.83 4.48 66.76 4.55 66.76 4.64 66.76 4.64 66.76 11.01 66.76 11.01 66.76 13.2 65.26 15.05 63.1 15.52 55.88 17.1 49.07 19.92 42.86 23.9 41 25.1 38.62 24.85 37.07 23.3 37.07 23.3 32.57 18.8 32.57 18.8 32.51 18.74 32.41 18.74 32.35 18.8 32.35 18.8 18.8 32.35 18.8 32.35 18.74 32.41 18.74 32.51 18.8 32.57 18.8 32.57 23.3 37.07 23.3 37.07 24.85 38.62 25.1 41 23.9 42.86 19.92 49.07 17.1 55.88 15.52 63.1 15.05 65.26 13.19 66.76 11.01 66.76 11.01 66.76 4.64 66.76 4.64 66.76 4.55 66.76 4.48 66.83 4.48 66.92 4.48 66.92 4.48 86.08 4.48 86.08 4.48 86.17 4.55 86.24 4.64 86.24 4.64 86.24 11.01 86.24 11.01 86.24 13.19 86.24 15.05 87.74 15.52 89.9 17.1 97.12 19.92 103.93 23.9 110.14 25.1 112 24.85 114.38 23.3 115.93 23.3 115.93 18.8 120.43 18.8 120.43 18.74 120.49 18.74 120.59 18.8 120.65 18.8 120.65 32.35 134.2 32.35 134.2 32.41 134.26 32.51 134.26 32.57 134.2 32.57 134.2 37.07 129.7 37.07 129.7 37.96 128.81 39.13 128.35 40.32 128.35 41.19 128.35 42.07 128.59 42.86 129.1 49.07 133.08 55.88 135.9 63.1 137.48 65.26 137.95 66.76 139.81 66.76 141.99 66.76 141.99 66.76 148.36 66.76 148.36 66.76 148.45 66.83 148.52 66.92 148.52 66.92 148.52 86.08 148.52 86.08 148.52 86.17 148.52 86.24 148.45 86.24 148.36 86.24 148.36 86.24 141.99 86.24 141.99 86.24 139.81 87.74 137.95 89.9 137.48 97.12 135.9 103.93 133.08 110.14 129.1 112 127.9 114.38 128.15 115.93 129.7 115.93 129.7 120.43 134.2 120.43 134.2 120.49 134.26 120.59 134.26 120.65 134.2 120.65 134.2 134.2 120.65 134.2 120.65 134.26 120.59 134.26 120.49 134.2 120.43 134.2 120.43 129.7 115.93 129.7 115.93 128.15 114.38 127.9 112 129.1 110.14 133.08 103.93 135.9 97.12 137.48 89.9 137.95 87.74 139.81 86.24 141.99 86.24 141.99 86.24 148.36 86.24 148.36 86.24 148.45 86.24 148.52 86.17 148.52 86.08 148.52 86.08 148.52 86.08 148.52 86.08ZM 110.27 110.27C 101.87 118.67 90.71 123.61 78.86 124.2 78.07 124.24 77.28 124.26 76.49 124.26 65.55 124.26 54.97 120.53 46.47 113.64 45.51 112.86 45.36 111.44 46.14 110.48 46.92 109.52 48.33 109.37 49.29 110.15 49.63 110.42 49.96 110.69 50.3 110.95 50.3 110.95 50.3 98.69 50.3 98.69 50.3 94.5 53.12 90.77 57.14 89.62 57.14 89.62 65.22 87.31 65.22 87.31 66.31 87 67.07 86 67.07 84.86 67.07 84.86 67.07 82.84 67.07 82.84 62.74 79.71 59.89 74.51 59.89 68.71 59.89 68.71 59.89 65.05 59.89 65.05 59.89 65.05 58.74 62.76 58.74 62.76 57.92 61.12 57.49 59.3 57.49 57.47 57.49 57.47 57.49 57.34 57.49 57.34 57.49 49.5 63.87 43.12 71.71 43.12 71.71 43.12 93.27 43.12 93.27 43.12 94.51 43.12 95.51 44.12 95.51 45.36 95.51 45.36 95.51 56.9 95.51 56.9 95.51 59.1 94.99 61.3 94.01 63.26 94.01 63.26 93.11 65.05 93.11 65.05 93.11 65.05 93.11 69.31 93.11 69.31 93.11 73.85 91.32 78.08 88.07 81.24 87.4 81.89 86.68 82.47 85.93 82.99 85.93 82.99 85.93 84.86 85.93 84.86 85.93 86 86.69 87 87.78 87.31 87.78 87.31 95.86 89.62 95.86 89.62 99.88 90.77 102.7 94.5 102.7 98.69 102.7 98.69 102.7 110.94 102.7 110.94 104.24 109.77 105.71 108.49 107.1 107.1 114.71 99.49 119.19 89.38 119.72 78.64 120.24 67.97 116.85 57.55 110.15 49.29 109.37 48.33 109.52 46.92 110.48 46.14 111.45 45.36 112.86 45.51 113.64 46.47 121.03 55.59 124.78 67.09 124.2 78.86 123.61 90.71 118.67 101.87 110.27 110.27ZM 88.63 69.31C 88.63 69.31 88.63 64.52 88.63 64.52 88.63 64.17 88.71 63.83 88.87 63.52 88.87 63.52 90 61.26 90 61.26 90.67 59.91 91.03 58.41 91.03 56.9 91.03 56.9 91.03 47.6 91.03 47.6 91.03 47.6 71.71 47.6 71.71 47.6 66.34 47.6 61.97 51.97 61.97 57.34 61.97 57.34 61.97 57.47 61.97 57.47 61.97 58.6 62.24 59.74 62.75 60.75 62.75 60.75 64.13 63.52 64.13 63.52 64.29 63.83 64.37 64.17 64.37 64.52 64.37 64.52 64.37 68.71 64.37 68.71 64.37 75.54 69.64 81.24 76.13 81.44 79.44 81.54 82.57 80.32 84.95 78.02 87.32 75.71 88.63 72.62 88.63 69.31ZM 71.16 87.16C 71.16 87.16 73 89 73 89 73.94 89.93 75.18 90.45 76.5 90.45 77.82 90.45 79.06 89.93 80 89 80 89 81.84 87.16 81.84 87.16 81.62 86.53 81.49 85.86 81.46 85.18 79.87 85.67 78.21 85.93 76.51 85.93 76.33 85.93 76.16 85.93 75.99 85.92 74.45 85.87 72.96 85.6 71.54 85.13 71.52 85.83 71.39 86.52 71.16 87.16ZM 98.21 98.69C 98.21 96.49 96.74 94.54 94.63 93.93 94.63 93.93 86.54 91.63 86.54 91.63 85.84 91.42 85.19 91.12 84.61 90.73 84.61 90.73 83.17 92.17 83.17 92.17 81.33 94.01 78.91 94.92 76.5 94.92 74.09 94.92 71.67 94 69.83 92.17 69.83 92.17 68.39 90.73 68.39 90.73 67.81 91.12 67.16 91.42 66.45 91.63 66.45 91.63 58.37 93.93 58.37 93.93 56.26 94.54 54.79 96.49 54.79 98.69 54.79 98.69 54.79 113.94 54.79 113.94 56.43 114.9 58.14 115.74 59.89 116.47 59.89 116.47 59.89 102.85 59.89 102.85 59.89 101.61 60.89 100.61 62.13 100.61 63.37 100.61 64.37 101.61 64.37 102.85 64.37 102.85 64.37 118.04 64.37 118.04 68.28 119.18 72.36 119.77 76.49 119.77 77.21 119.77 77.92 119.76 78.64 119.72 82.05 119.55 85.4 118.98 88.63 118.04 88.63 118.04 88.63 102.85 88.63 102.85 88.63 101.61 89.63 100.61 90.87 100.61 92.11 100.61 93.11 101.61 93.11 102.85 93.11 102.85 93.11 116.46 93.11 116.46 94.87 115.74 96.57 114.89 98.21 113.94 98.21 113.94 98.21 98.69 98.21 98.69ZM 82.68 61.74C 79.15 59.97 71.83 59.58 69.31 59.58 68.08 59.58 67.07 58.57 67.07 57.34 67.07 56.1 68.08 55.1 69.31 55.1 69.73 55.1 79.48 55.13 84.69 57.73 85.8 58.28 86.24 59.63 85.69 60.73 85.3 61.52 84.51 61.97 83.68 61.97 83.35 61.97 83.01 61.9 82.68 61.74ZM 103.71 42.85C 95.45 36.15 85.03 32.76 74.36 33.28 63.62 33.81 53.51 38.29 45.9 45.9 38.29 53.51 33.81 63.62 33.28 74.36 32.76 85.03 36.15 95.45 42.85 103.71 43.63 104.67 43.48 106.08 42.52 106.86 42.1 107.2 41.6 107.36 41.11 107.36 40.46 107.36 39.81 107.08 39.37 106.53 31.98 97.41 28.22 85.91 28.8 74.14 29.39 62.29 34.33 51.13 42.73 42.73 51.13 34.33 62.29 29.39 74.14 28.8 85.91 28.22 97.41 31.97 106.53 39.36 107.49 40.14 107.64 41.55 106.86 42.52 106.08 43.48 104.67 43.63 103.71 42.85Z" fill="rgb(0,0,0)"/></svg>